<?xml version="1.0" encoding="UTF-8"?>
<svg version="1.1" xmlns="http://www.w3.org/2000/svg" width="64" height="64">
<path d="M0 0 C2.8846524 -0.30398975 5.55085861 -0.4199567 8.4375 -0.3984375 C9.27337646 -0.40130768 10.10925293 -0.40417786 10.97045898 -0.40713501 C12.73910194 -0.40917804 14.50776736 -0.4036315 16.27636719 -0.39111328 C18.98944439 -0.37506245 21.70103184 -0.39095331 24.4140625 -0.41015625 C26.13021163 -0.40817386 27.84635984 -0.40433027 29.5625 -0.3984375 C30.7844104 -0.40754654 30.7844104 -0.40754654 32.03100586 -0.4168396 C34.31640625 -0.38818359 34.31640625 -0.38818359 38 0 C40.13586678 3.20380017 40.23132175 4.01939967 40.125 7.6875 C40.10695313 8.49574219 40.08890625 9.30398438 40.0703125 10.13671875 C40.04710938 10.75160156 40.02390625 11.36648438 40 12 C38.35 12 36.7 12 35 12 C35.01571045 12.83640015 35.01571045 12.83640015 35.03173828 13.68969727 C35.57054226 46.8875248 35.57054226 46.8875248 29 57 C25.76705364 58.61647318 22.20375099 58.28773798 18.62890625 58.42578125 C17.76136719 58.61527344 16.89382812 58.80476563 16 59 C15.43563232 59.99567993 15.43563232 59.99567993 14.85986328 61.01147461 C13 63 13 63 9.26293945 63.45410156 C7.71290909 63.45346919 6.16278783 63.43092222 4.61328125 63.390625 C3.79627243 63.38496521 2.97926361 63.37930542 2.13749695 63.37347412 C-0.47143203 63.35108697 -3.07898636 63.30088846 -5.6875 63.25 C-7.45636037 63.22993792 -9.22524227 63.21168664 -10.99414062 63.1953125 C-15.32995656 63.1512148 -19.66474525 63.08217294 -24 63 C-24 61.68 -24 60.36 -24 59 C-23.01 58.505 -23.01 58.505 -22 58 C-21.60693989 55.51307973 -21.60693989 55.51307973 -21.5 52.625 C-21.29539329 48.74770285 -21.20524011 47.30786016 -19 44 C-16.37302936 43.77862607 -13.99106036 43.71837975 -11.375 43.8125 C-10.66859375 43.82603516 -9.9621875 43.83957031 -9.234375 43.85351562 C-7.48925872 43.8888896 -5.74453392 43.94269779 -4 44 C-3.9498877 42.77369873 -3.89977539 41.54739746 -3.84814453 40.28393555 C-3.65992552 35.73809363 -3.45950268 31.19285795 -3.25537109 26.64770508 C-3.16869993 24.67975029 -3.0853476 22.71164643 -3.00537109 20.7434082 C-2.88989711 17.9157212 -2.762532 15.08878358 -2.6328125 12.26171875 C-2.58267502 10.93970711 -2.58267502 10.93970711 -2.53152466 9.59098816 C-2.49163422 8.77036392 -2.45174377 7.94973969 -2.41064453 7.10424805 C-2.37955597 6.38254929 -2.34846741 5.66085052 -2.31643677 4.9172821 C-2 3 -2 3 0 0 Z M2 3 C1.71322617 7.71384477 1.42774981 12.42773239 1.14550781 17.1418457 C1.04925322 18.74312798 0.95225979 20.34436603 0.85449219 21.94555664 C0.71351603 24.25655871 0.57526073 26.56771054 0.4375 28.87890625 C0.39375244 29.58648575 0.35000488 30.29406525 0.30493164 31.02308655 C0.04896933 35.37106598 0 39.63201587 0 44 C6.93 44 13.86 44 21 44 C21.33 46.97 21.66 49.94 22 53 C23.32 53.33 24.64 53.66 26 54 C32.27876652 43.72565479 31.38155673 30.41245432 31.625 18.75 C31.66329016 17.21482429 31.70234776 15.67966753 31.7421875 14.14453125 C31.83836177 10.42980016 31.91886324 6.71520973 32 3 C22.1 3 12.2 3 2 3 Z M35 4 C35 5.65 35 7.3 35 9 C35.66 9 36.32 9 37 9 C36.67 7.35 36.34 5.7 36 4 C35.67 4 35.34 4 35 4 Z M-17 47 C-17.33 51.29 -17.66 55.58 -18 60 C-13.56233943 60.05378983 -9.12532637 60.09357381 -4.6875 60.125 C-2.79354492 60.15013672 -2.79354492 60.15013672 -0.86132812 60.17578125 C0.34716797 60.18222656 1.55566406 60.18867187 2.80078125 60.1953125 C3.91622314 60.20578613 5.03166504 60.21625977 6.1809082 60.22705078 C9.20678201 60.21322653 9.20678201 60.21322653 12 58 C12.33 54.37 12.66 50.74 13 47 C3.1 47 -6.8 47 -17 47 Z M17 47 C15.64381501 48.12534105 15.64381501 48.12534105 15.9375 51.0625 C15.958125 52.031875 15.97875 53.00125 16 54 C16.99 54 17.98 54 19 54 C18.67 51.69 18.34 49.38 18 47 C17.67 47 17.34 47 17 47 Z " fill="#000000" transform="translate(24,0)"/>
<path d="M0 0 C6.93 0 13.86 0 21 0 C21 1.32 21 2.64 21 4 C14.07 4 7.14 4 0 4 C0 2.68 0 1.36 0 0 Z " fill="#000000" transform="translate(28,38)"/>
<path d="M0 0 C6.6 0 13.2 0 20 0 C20 1.32 20 2.64 20 4 C13.4 4 6.8 4 0 4 C0 2.68 0 1.36 0 0 Z " fill="#000000" transform="translate(29,22)"/>
<path d="M0 0 C7.26 0 14.52 0 22 0 C22 0.99 22 1.98 22 3 C14.74 3 7.48 3 0 3 C0 2.01 0 1.02 0 0 Z " fill="#000000" transform="translate(29,28)"/>
<path d="M0 0 C6.27 0 12.54 0 19 0 C19 0.99 19 1.98 19 3 C12.73 3 6.46 3 0 3 C0 2.01 0 1.02 0 0 Z " fill="#000000" transform="translate(29,33)"/>
<path d="M0 0 C5.94 0 11.88 0 18 0 C18 0.99 18 1.98 18 3 C12.06 3 6.12 3 0 3 C0 2.01 0 1.02 0 0 Z " fill="#000000" transform="translate(33,17)"/>
<path d="M0 0 C2.97 0 5.94 0 9 0 C9 0.99 9 1.98 9 3 C6.03 3 3.06 3 0 3 C0 2.01 0 1.02 0 0 Z " fill="#000000" transform="translate(30,12)"/>
</svg>
